<svg width="180" height="32" viewBox="0 0 180 32" fill="none" xmlns="http://www.w3.org/2000/svg">
<g clip-path="url(#clip0_9616_2206)">
<path fill-rule="evenodd" clip-rule="evenodd" d="M57.7932 20.7728C58.4409 17.7713 56.4872 16.1987 53.5429 16.1987C50.4293 16.1987 46.905 17.7109 46.1684 21.1249C45.5969 23.7743 48.2936 24.7262 50.3065 25.2449C51.5384 25.5761 53.6784 25.701 53.2995 27.459C52.9545 29.0525 51.1447 29.4461 49.8409 29.4461C48.1369 29.4461 47.4109 28.3276 47.8956 26.6717H44.5703C43.6517 30.4397 45.8255 31.7644 49.2969 31.7644C52.5587 31.7644 56.1147 30.4814 56.9169 26.7758C57.5667 23.7743 54.2965 23.1328 52.1078 22.5537C50.8696 22.2434 49.4366 22.0559 49.7858 20.4417C50.0673 19.1377 51.422 18.517 52.6201 18.517C54.1991 18.517 54.8574 19.2627 54.6563 20.7728H57.7911H57.7932ZM62.8648 19.1794C63.1823 18.6837 63.5929 18.2483 64.2025 18.2483C64.6449 18.2483 65.0682 18.4337 65.5106 18.6212C65.9742 18.8086 66.4398 18.994 66.9436 18.994C68.4168 18.994 69.4667 17.8338 69.8561 16.5091H68.783C68.5375 16.9652 68.2242 17.4402 67.6569 17.4402C67.151 17.4402 66.7341 17.2339 66.2705 17.0465C65.8302 16.8403 65.3667 16.6528 64.7994 16.6528C63.3474 16.6528 62.2742 17.9151 61.7916 19.1794H62.8648ZM65.1211 26.5696C64.8566 27.7902 64.3824 29.6961 62.6362 29.6961C61.7514 29.6961 61.2349 29.0754 61.4212 28.2047C61.7853 26.528 64.0289 26.5488 65.1211 26.5696ZM62.8161 24.0035C62.8754 23.5265 63.4532 22.5121 64.5475 22.5121C65.6418 22.5121 65.8133 23.3619 65.7202 23.7952L65.5106 24.7679C64.2575 24.7262 62.6446 24.7887 61.2667 25.3261C59.1796 26.1343 58.4621 27.8923 58.3054 28.6171C57.8673 30.6459 59.0992 31.7644 61.0762 31.7644C62.507 31.7644 63.7072 31.2687 64.6809 30.0669H64.7232C64.628 30.5022 64.5687 30.9771 64.5285 31.4541H67.3691C67.3945 31.1437 67.3775 30.8334 67.4685 30.3147L68.6941 24.6429C69.3672 21.5164 67.1574 20.752 65.0322 20.752C63.8977 20.752 62.7462 20.9186 61.7768 21.4144C60.8328 21.8893 60.0898 22.6975 59.7871 24.0014H62.8161V24.0035ZM81.5931 26.2593C82.3001 22.9891 80.721 20.752 77.273 20.752C73.8249 20.752 71.2786 22.987 70.5716 26.2593C69.8646 29.5295 71.4437 31.7644 74.8938 31.7644C78.344 31.7644 80.8883 29.5295 81.5952 26.2593H81.5931ZM73.8313 26.2593C74.189 24.6033 74.8875 22.8224 76.8242 22.8224C78.761 22.8224 78.6912 24.6033 78.3313 26.2593C77.9757 27.9152 77.2751 29.6961 75.3383 29.6961C73.4016 29.6961 73.4714 27.9152 73.8313 26.2593ZM105.321 18.6212L105.353 18.6628L102.588 31.4562H105.641L108.869 16.5112H103.714L97.9148 27.3778H97.8725L97.0448 16.5112H91.7024L88.4744 31.4562H91.5246L94.2889 18.6628L94.3397 18.6212L95.5865 31.4562H98.3L105.321 18.6212ZM115.358 26.5696C115.096 27.7902 114.622 29.6961 112.875 29.6961C111.991 29.6961 111.472 29.0754 111.663 28.2047C112.025 26.528 114.27 26.5488 115.358 26.5696ZM113.051 24.0035C113.113 23.5265 113.688 22.5121 114.783 22.5121C115.877 22.5121 116.05 23.3619 115.955 23.7952L115.746 24.7679C114.493 24.7262 112.88 24.7887 111.502 25.3261C109.413 26.1343 108.697 27.8923 108.541 28.6171C108.102 30.6459 109.334 31.7644 111.311 31.7644C112.74 31.7644 113.942 31.2687 114.916 30.0669H114.96C114.865 30.5022 114.806 30.9771 114.766 31.4541H117.604C117.63 31.1437 117.613 30.8334 117.704 30.3147L118.927 24.6429C119.602 21.5164 117.39 20.752 115.265 20.752C114.129 20.752 112.979 20.9186 112.01 21.4144C111.064 21.8893 110.321 22.6975 110.02 24.0014H113.049L113.051 24.0035ZM122.119 21.0624C121.996 21.8289 121.871 22.6975 121.776 23.1328L120 31.4541H123.135L124.248 26.2988C124.418 25.6156 124.604 25.0366 125.065 24.4555C125.476 24.0201 126.232 23.7306 126.767 23.6889H128.135L128.729 20.9353C127.161 20.8936 125.726 21.3082 124.699 22.9432H124.657L125 21.0603H122.117L122.119 21.0624ZM129.307 21.0624L128.861 23.1328H130.986L129.881 28.2443C129.394 30.5001 129.646 31.7644 132.11 31.7644C132.552 31.7644 134.264 31.6186 134.658 31.4541L135.052 29.6315C134.711 29.6524 134.364 29.694 134.027 29.694C132.933 29.694 132.804 29.3212 133.098 27.9548L134.14 23.1307H136.517L136.963 21.0603H134.586L135.27 17.8942L131.875 19.0128L131.43 21.0624H129.305H129.307ZM138.813 21.0624L136.57 31.4541H139.726L141.969 21.0624H138.813ZM139.692 16.5091L139.116 19.1794H142.479L143.055 16.5091H139.692ZM147.834 21.0624H144.7L142.456 31.4541H145.612L146.962 25.2032C147.331 23.691 148.381 22.8224 149.369 22.8224C150.925 22.8224 150.969 24.0847 150.749 25.2032L149.399 31.4541H152.553L154.015 24.6846C154.091 24.3326 154.191 23.6702 154.161 23.0286C154.11 21.5185 152.235 20.752 151.183 20.752C149.585 20.752 148.463 21.3727 147.606 22.3246L147.576 22.2621L147.834 21.0624ZM158.458 31.4541L159.809 25.2032C160.177 23.691 161.227 22.8224 162.217 22.8224C163.773 22.8224 163.815 24.0847 163.595 25.2032L162.245 31.4541H165.401L166.863 24.6846C166.94 24.3326 167.039 23.6702 167.009 23.0286C166.957 21.5185 165.081 20.752 164.031 20.752C162.433 20.752 161.309 21.3727 160.452 22.3246L160.418 22.283L161.667 16.507H158.532L155.304 31.452H158.458V31.4541ZM179.832 26.2593C180.541 22.9891 178.962 20.752 175.512 20.752C172.062 20.752 169.518 22.987 168.811 26.2593C168.104 29.5295 169.683 31.7644 173.133 31.7644C176.583 31.7644 179.127 29.5295 179.832 26.2593ZM172.07 26.2593C172.428 24.6033 173.129 22.8224 175.063 22.8224C176.998 22.8224 176.928 24.6033 176.57 26.2593C176.213 27.9152 175.512 29.6961 173.577 29.6961C171.643 29.6961 171.711 27.9152 172.068 26.2593H172.07Z" fill="white"/>
<path fill-rule="evenodd" clip-rule="evenodd" d="M24.3695 22.1228L21.4972 31.9979H12.0547L18.2417 10.8645C24.0435 12.8537 25.0193 17.9361 24.3695 22.1228ZM21.4189 0H30.8L26.7571 13.9056C26.5836 10.4646 24.4457 6.16755 20.0727 4.60118L21.4189 0Z" fill="white"/>
<path fill-rule="evenodd" clip-rule="evenodd" d="M36.3127 22.1228L33.4425 31.9979H24L30.1849 10.8645C35.991 12.8537 36.9646 17.9361 36.3127 22.1228ZM33.3642 0H42.7432L38.7003 13.9056C38.5267 10.4646 36.3868 6.16755 32.018 4.60118L33.3642 0Z" fill="white"/>
<path fill-rule="evenodd" clip-rule="evenodd" d="M9.36753 0H18.7486L14.7058 13.9056C14.5301 10.4646 12.3944 6.16755 8.02344 4.60118L9.36753 0Z" fill="#BBBCBE"/>
<path fill-rule="evenodd" clip-rule="evenodd" d="M12.3148 22.1228L9.44249 31.998H0L6.18493 10.8667C11.9889 12.8559 12.9625 17.9382 12.3127 22.1249L12.3148 22.1228Z" fill="white"/>
</g>
<defs>
<clipPath id="clip0_9616_2206">
<rect width="180" height="32" fill="white"/>
</clipPath>
</defs>
</svg>
